{"title":"Splice.BRRip.H264.Feel-Free","uid":5856978,"size":1457792833,"categoryP":"video","categoryS":"movies","magnet":"?xt=urn:btih:b07453b1929e57f394c3cb3755016aba3b2bced9&amp;dn=Splice.BRRip.H264.Feel-Free&amp;tr=udp%3A%2F%2Ftracker.openbittorrent.com%3A80&amp;tr=udp%3A%2F%2Fopen.demonii.com%3A1337&amp;tr=udp%3A%2F%2Ftracker.coppersurfer.tk%3A6969&amp;tr=udp%3A%2F%2Fexodus.desync.com%3A6969","seeders":0,"leechers":0,"uploader":"neon","files":-1,"time":1285663812,"description":"Clive Nicoli (Adrien Brody) and Elsa Kast (Sarah Polley) are two young scientists who have been given the job of running a genetic laboratory at a large corporation to develop a protein using animal gene splicing from several different species. To speed up the process, they secretly take a chance and add human DNA to the experiment\n &lt;a href=&quot;\nhttp://www.starshare.ro/bitbucket/Splice.BRRip.H264.Feel-Free.mp4_snapshot_00.25.58_%5B2010.09.28_08.36.49%5D.jpg&quot; rel=&quot;nofollow&quot; target=&quot;_NEW&quot;&gt;\nhttp://www.starshare.ro/bitbucket/Splice.BRRip.H264.Feel-Free.mp4_snapshot_00.25.58_%5B2010.09.28_08.36.49%5D.jpg&lt;/a&gt; &lt;a href=&quot;\nhttp://www.starshare.ro/bitbucket/Splice.BRRip.H264.Feel-Free.mp4_snapshot_01.18.49_%5B2010.09.28_08.36.07%5D.jpg&quot; rel=&quot;nofollow&quot; target=&quot;_NEW&quot;&gt;\nhttp://www.starshare.ro/bitbucket/Splice.BRRip.H264.Feel-Free.mp4_snapshot_01.18.49_%5B2010.09.28_08.36.07%5D.jpg&lt;/a&gt; &lt;a href=&quot;\nhttp://www.starshare.ro/bitbucket/Splice.BRRip.H264.Feel-Free.mp4_snapshot_00.32.38_%5B2010.09.28_08.37.21%5D.jpg&quot; rel=&quot;nofollow&quot; target=&quot;_NEW&quot;&gt;\nhttp://www.starshare.ro/bitbucket/Splice.BRRip.H264.Feel-Free.mp4_snapshot_00.32.38_%5B2010.09.28_08.37.21%5D.jpg&lt;/a&gt; &lt;a href=&quot;\nhttp://www.starshare.ro/bitbucket/Splice.BRRip.H264.Feel-Free.mp4_snapshot_01.13.08_%5B2010.09.28_08.35.54%5D.jpg&quot; rel=&quot;nofollow&quot; target=&quot;_NEW&quot;&gt;\nhttp://www.starshare.ro/bitbucket/Splice.BRRip.H264.Feel-Free.mp4_snapshot_01.13.08_%5B2010.09.28_08.35.54%5D.jpg&lt;/a&gt;\n\n\nGenre:Horror | Sci-Fi | Thriller\nLanguage: English\n &lt;a href=&quot; http://www.imdb.com/title/tt1017460/&quot; rel=&quot;nofollow&quot; target=&quot;_NEW&quot;&gt; http://www.imdb.com/title/tt1017460/&lt;/a&gt;\nSource:x264-REFiNED\nSubtitles: ROMANA\n\nGeneral\nComplete name :Splice.BRRip.H264.Feel-Free\nFormat : MPEG-4\nFormat profile : Base Media\nCodec ID : isom\nFile size : 1.36 GiB\nDuration : 1h 43mn\nOverall bit rate : 1 869 Kbps\nVideo #1\nID : 1\nFormat : AVC\nFormat/Info : Advanced Video Codec\nFormat profile : &lt;a class=&quot;__cf_email__&quot; href=&quot;/cdn-cgi/l/email-protection&quot; data-cfemail=&quot;63210210060f0a0d06232f564d52&quot;&gt;[email&amp;#160;protected]&lt;/a&gt;&lt;script cf-hash='f9e31' type=&quot;text/javascript&quot;&gt;\n/* &lt;![CDATA[ */!function(){try{var t=&quot;currentScript&quot;in document?document.currentScript:function(){for(var t=document.getElementsByTagName(&quot;script&quot;),e=t.length;e--;)if(t[e].getAttribute(&quot;cf-hash&quot;))return t[e]}();if(t&amp;&amp;t.previousSibling){var e,r,n,i,c=t.previousSibling,a=c.getAttribute(&quot;data-cfemail&quot;);if(a){for(e=&quot;&quot;,r=parseInt(a.substr(0,2),16),n=2;a.length-n;n+=2)i=parseInt(a.substr(n,2),16)^r,e+=String.fromCharCode(i);e=document.createTextNode(e),c.parentNode.replaceChild(e,c)}}}catch(u){}}();/* ]]&gt; */&lt;/script&gt;\nFormat settings, CABAC : No\nFormat settings, ReFrames : 1 frame\nCodec ID : avc1\nCodec ID/Info : Advanced Video Coding\nDuration : 1h 43mn\nBit rate mode : Variable\nBit rate : 1 548 Kbps\nWidth : 652 pixels\nHeight : 352 pixels\nDisplay aspect ratio : 1.852\nFrame rate mode : Constant\nFrame rate : 24.390 fps\nResolution : 24 bits\nColorimetry : 4:2:0\nScan type : Progressive\nBits/(Pixel*Frame) : 0.277\nStream size : 1.12 GiB (83%)\nAudio #2\nID : 2\nFormat : AAC\nFormat/Info : Advanced Audio Codec\nFormat version : Version 4\nFormat profile : LC\nFormat settings, SBR : No\nCodec ID : 40\nDuration : 1h 43mn\nBit rate mode : Variable\nBit rate : 320 Kbps\nChannel(s) : 6 channels\nChannel positions : Front: L C R, Rear: L R, LFE\nSampling rate : 48.0 KHz\nResolution : 16 bits\nStream size : 235 MiB (17%)","torrent":{"xt":"urn:btih:b07453b1929e57f394c3cb3755016aba3b2bced9","amp;dn":"Splice.BRRip.H264.Feel-Free","amp;tr":["udp%3A%2F%2Ftracker.openbittorrent.com%3A80","udp%3A%2F%2Fopen.demonii.com%3A1337","udp%3A%2F%2Ftracker.coppersurfer.tk%3A6969","udp%3A%2F%2Fexodus.desync.com%3A6969"],"infoHash":"b07453b1929e57f394c3cb3755016aba3b2bced9","infoHashBuffer":{"type":"Buffer","data":[176,116,83,177,146,158,87,243,148,195,203,55,85,1,106,186,59,43,206,217]},"announce":[],"urlList":[]}}